<?xml version="1.0" encoding="utf-8"?>
<svg xmlns="http://www.w3.org/2000/svg" viewBox="0 0 48 48" width="32" height="32">
  <polyline fill="#3dd9eb" points="44,41 4,41 4,7 44,7 44,41" />
  <path fill="#6c19ff" d="M31.5,11c-1.933,0-3.5,1.567-3.5,3.5s1.567,3.5,3.5,3.5s3.5-1.567,3.5-3.5S33.433,11,31.5,11z" />
  <polyline fill="#6c19ff" points="20.815,17.893 4,40.81 4,41 37.769,41 20.411,41 38,41 20.815,17.893" />
  <polyline fill="#6c19ff" points="31.364,24.009 19,40.86 19,41 43.83,41 31.067,41 44,41 31.364,24.009" />
  <polygon fill="#2100c4" points="38,41 28.384,28.07 19,40.86 19,41 31.067,41" />
</svg>